<svg version="1.1" viewBox="0.0 0.0 960.0 720.0" fill="none" stroke="none" stroke-linecap="square" stroke-miterlimit="10" xmlns:xlink="http://www.w3.org/1999/xlink" xmlns="http://www.w3.org/2000/svg"><clipPath id="p.0"><path d="m0 0l960.0 0l0 720.0l-960.0 0l0 -720.0z" clip-rule="nonzero"/></clipPath><g clip-path="url(#p.0)"><path fill="#000000" fill-opacity="0.0" d="m0 0l960.0 0l0 720.0l-960.0 0z" fill-rule="evenodd"/><path fill="#0b0c1c" d="m0.8897638 114.66308l0 0c0 -62.346764 50.542038 -112.8888 112.8888 -112.8888l734.2224 0c29.939941 0 58.653687 11.893608 79.8244 33.064365c21.170776 21.170757 33.064392 49.884464 33.064392 79.82443l0 494.2224c0 62.34674 -50.542053 112.888794 -112.888794 112.888794l-734.2224 0c-62.346764 0 -112.8888 -50.542053 -112.8888 -112.888794z" fill-rule="evenodd"/><path fill="#000000" fill-opacity="0.0" d="m50.968502 155.5748l859.8425 0l0 408.85037l-859.8425 0z" fill-rule="evenodd"/><path fill="#ffffff" d="m251.73889 473.0548l0 -202.875l-75.78125 0l0 -27.140625l182.3125 0l0 27.140625l-76.09375 0l0 202.875l-30.4375 0zm137.7644 0l0 -230.01562l86.765625 0q22.90625 0 34.984375 2.203125q16.9375 2.8125 28.390625 10.75q11.453125 7.921875 18.4375 22.203125q6.984375 14.265625 6.984375 31.375q0 29.34375 -18.671875 49.65625q-18.671875 20.3125 -67.46875 20.3125l-58.984375 0l0 93.515625l-30.4375 0zm30.4375 -120.65625l59.453125 0q29.5 0 41.890625 -10.984375q12.40625 -10.984375 12.40625 -30.90625q0 -14.4375 -7.296875 -24.703125q-7.296875 -10.28125 -19.21875 -13.578125q-7.6875 -2.046875 -28.40625 -2.046875l-58.828125 0l0 82.21875zm182.62024 120.65625l0 -230.01562l86.296875 0q26.359375 0 42.28125 6.984375q15.921875 6.984375 24.9375 21.5q9.03125 14.515625 9.03125 30.359375q0 14.75 -8.0 27.78125q-8.0 13.015625 -24.15625 21.015625q20.859375 6.109375 32.078125 20.859375q11.21875 14.75 11.21875 34.828125q0 16.171875 -6.828125 30.0625q-6.8125 13.875 -16.859375 21.40625q-10.046875 7.53125 -25.1875 11.375q-15.140625 3.84375 -37.109375 3.84375l-87.703125 0zm30.4375 -133.35938l49.734375 0q20.25 0 29.03125 -2.671875q11.609375 -3.453125 17.484375 -11.453125q5.890625 -8.0 5.890625 -20.078125q0 -11.453125 -5.5 -20.15625q-5.484375 -8.71875 -15.6875 -11.9375q-10.1875 -3.21875 -34.984375 -3.21875l-45.96875 0l0 69.515625zm0 106.21875l57.265625 0q14.75 0 20.71875 -1.09375q10.515625 -1.890625 17.5625 -6.28125q7.0625 -4.390625 11.609375 -12.78125q4.5625 -8.40625 4.5625 -19.390625q0 -12.859375 -6.59375 -22.34375q-6.59375 -9.5 -18.28125 -13.34375q-11.6875 -3.84375 -33.65625 -3.84375l-53.1875 0l0 79.078125z" fill-rule="nonzero"/><path fill="#000000" fill-opacity="0.0" d="m83.01575 304.4042l827.81104 0l0 117.95276l-827.81104 0z" fill-rule="evenodd"/><path fill="#0b0c1c" d="m214.41718 313.4042l565.0082 0l0 97.600006l-565.0082 0l0 -97.600006z" fill-rule="nonzero"/><path fill="#000000" fill-opacity="0.0" d="m214.41718 317.86002l565.0082 0l0 93.51941l-565.0082 0l0 -93.51941z" fill-rule="nonzero"/><path fill="#ffffff" d="m235.51093 391.4842l0 -51.34375l-19.1875 0l0 -6.875l46.140625 0l0 6.875l-19.25 0l0 51.34375l-7.703125 0zm33.94409 0l0 -58.21875l7.15625 0l0 20.890625q5.0 -5.796875 12.625 -5.796875q4.6875 0 8.140625 1.84375q3.453125 1.84375 4.9375 5.109375q1.5 3.25 1.5 9.453125l0 26.71875l-7.15625 0l0 -26.71875q0 -5.375 -2.328125 -7.8125q-2.3125 -2.4375 -6.5625 -2.4375q-3.1875 0 -5.984375 1.65625q-2.796875 1.640625 -3.984375 4.46875q-1.1875 2.8125 -1.1875 7.765625l0 23.078125l-7.15625 0zm74.105835 -13.578125l7.375 0.90625q-1.734375 6.484375 -6.46875 10.0625q-4.71875 3.5625 -12.0625 3.5625q-9.265625 0 -14.6875 -5.6875q-5.40625 -5.703125 -5.40625 -16.0q0 -10.640625 5.46875 -16.515625q5.484375 -5.875 14.21875 -5.875q8.46875 0 13.828125 5.765625q5.359375 5.75 5.359375 16.1875q0 0.640625 -0.046875 1.90625l-31.453125 0q0.40625 6.953125 3.9375 10.65625q3.53125 3.6875 8.8125 3.6875q3.9375 0 6.71875 -2.0625q2.78125 -2.0625 4.40625 -6.59375zm-23.46875 -11.5625l23.546875 0q-0.484375 -5.3125 -2.703125 -7.984375q-3.421875 -4.125 -8.859375 -4.125q-4.921875 0 -8.28125 3.296875q-3.34375 3.296875 -3.703125 8.8125zm63.34204 25.140625l0 -58.21875l21.953125 0q5.796875 0 8.859375 0.5625q4.28125 0.703125 7.171875 2.71875q2.90625 2.0 4.671875 5.625q1.78125 3.609375 1.78125 7.9375q0 7.421875 -4.734375 12.5625q-4.71875 5.140625 -17.078125 5.140625l-14.921875 0l0 23.671875l-7.703125 0zm7.703125 -30.53125l15.046875 0q7.46875 0 10.59375 -2.78125q3.140625 -2.78125 3.140625 -7.828125q0 -3.65625 -1.84375 -6.25q-1.84375 -2.609375 -4.859375 -3.4375q-1.953125 -0.515625 -7.1875 -0.515625l-14.890625 0l0 20.8125zm45.667084 -19.46875l0 -8.21875l7.140625 0l0 8.21875l-7.140625 0zm0 50.0l0 -42.171875l7.140625 0l0 42.171875l-7.140625 0zm33.631012 -6.390625l1.03125 6.3125q-3.015625 0.640625 -5.40625 0.640625q-3.890625 0 -6.03125 -1.234375q-2.140625 -1.234375 -3.015625 -3.234375q-0.875 -2.015625 -0.875 -8.4375l0 -24.265625l-5.25 0l0 -5.5625l5.25 0l0 -10.4375l7.109375 -4.296875l0 14.734375l7.1875 0l0 5.5625l-7.1875 0l0 24.65625q0 3.0625 0.375 3.9375q0.375 0.875 1.21875 1.390625q0.859375 0.515625 2.453125 0.515625q1.1875 0 3.140625 -0.28125zm34.50183 -9.0625l7.03125 0.921875q-1.140625 7.265625 -5.890625 11.375q-4.75 4.109375 -11.65625 4.109375q-8.65625 0 -13.921875 -5.65625q-5.265625 -5.65625 -5.265625 -16.21875q0 -6.84375 2.265625 -11.953125q2.265625 -5.125 6.890625 -7.6875q4.625 -2.5625 10.0625 -2.5625q6.875 0 11.234375 3.484375q4.375 3.46875 5.609375 9.859375l-6.953125 1.0625q-0.984375 -4.234375 -3.515625 -6.375q-2.515625 -2.15625 -6.09375 -2.15625q-5.390625 0 -8.78125 3.875q-3.375 3.875 -3.375 12.25q0 8.5 3.25 12.359375q3.265625 3.84375 8.515625 3.84375q4.203125 0 7.015625 -2.578125q2.828125 -2.59375 3.578125 -7.953125zm13.1484375 15.453125l0 -58.21875l7.15625 0l0 20.890625q5.0 -5.796875 12.625 -5.796875q4.6875 0 8.140625 1.84375q3.453125 1.84375 4.9375 5.109375q1.5 3.25 1.5 9.453125l0 26.71875l-7.15625 0l0 -26.71875q0 -5.375 -2.328125 -7.8125q-2.3125 -2.4375 -6.5625 -2.4375q-3.1875 0 -5.984375 1.65625q-2.796875 1.640625 -3.984375 4.46875q-1.1875 2.8125 -1.1875 7.765625l0 23.078125l-7.15625 0zm68.420166 0l0 -58.21875l21.84375 0q6.671875 0 10.703125 1.765625q4.03125 1.765625 6.3125 5.453125q2.28125 3.671875 2.28125 7.671875q0 3.734375 -2.03125 7.03125q-2.015625 3.296875 -6.109375 5.328125q5.28125 1.546875 8.125 5.28125q2.84375 3.734375 2.84375 8.8125q0 4.09375 -1.734375 7.609375q-1.71875 3.5 -4.265625 5.40625q-2.546875 1.90625 -6.375 2.890625q-3.828125 0.96875 -9.390625 0.96875l-22.203125 0zm7.703125 -33.75l12.59375 0q5.125 0 7.34375 -0.671875q2.9375 -0.875 4.421875 -2.90625q1.5 -2.03125 1.5 -5.078125q0 -2.90625 -1.390625 -5.109375q-1.390625 -2.203125 -3.984375 -3.015625q-2.578125 -0.8125 -8.84375 -0.8125l-11.640625 0l0 17.59375zm0 26.875l14.5 0q3.734375 0 5.234375 -0.265625q2.671875 -0.484375 4.453125 -1.59375q1.78125 -1.109375 2.9375 -3.234375q1.15625 -2.125 1.15625 -4.90625q0 -3.265625 -1.671875 -5.65625q-1.671875 -2.40625 -4.625 -3.375q-2.953125 -0.984375 -8.515625 -0.984375l-13.46875 0l0 20.015625zm45.792114 6.875l0 -58.21875l7.140625 0l0 58.21875l-7.140625 0zm45.740417 -5.203125q-3.96875 3.375 -7.640625 4.765625q-3.671875 1.390625 -7.875 1.390625q-6.953125 0 -10.6875 -3.390625q-3.734375 -3.40625 -3.734375 -8.6875q0 -3.09375 1.40625 -5.65625q1.421875 -2.5625 3.703125 -4.109375q2.28125 -1.546875 5.140625 -2.34375q2.09375 -0.546875 6.34375 -1.0625q8.65625 -1.03125 12.75 -2.46875q0.046875 -1.46875 0.046875 -1.859375q0 -4.375 -2.03125 -6.15625q-2.734375 -2.421875 -8.140625 -2.421875q-5.046875 0 -7.453125 1.765625q-2.390625 1.765625 -3.546875 6.25l-6.984375 -0.953125q0.953125 -4.484375 3.125 -7.234375q2.1875 -2.765625 6.3125 -4.25q4.140625 -1.5 9.578125 -1.5q5.40625 0 8.78125 1.28125q3.375 1.265625 4.953125 3.1875q1.59375 1.921875 2.234375 4.859375q0.359375 1.828125 0.359375 6.59375l0 9.53125q0 9.96875 0.453125 12.609375q0.453125 2.640625 1.8125 5.0625l-7.46875 0q-1.109375 -2.21875 -1.4375 -5.203125zm-0.59375 -15.96875q-3.890625 1.59375 -11.671875 2.703125q-4.40625 0.640625 -6.234375 1.4375q-1.828125 0.796875 -2.828125 2.328125q-0.984375 1.515625 -0.984375 3.390625q0 2.859375 2.15625 4.765625q2.171875 1.90625 6.34375 1.90625q4.125 0 7.34375 -1.8125q3.21875 -1.8125 4.734375 -4.9375q1.140625 -2.421875 1.140625 -7.15625l0 -2.625zm45.824585 5.71875l7.03125 0.921875q-1.140625 7.265625 -5.890625 11.375q-4.75 4.109375 -11.65625 4.109375q-8.65625 0 -13.921875 -5.65625q-5.265625 -5.65625 -5.265625 -16.21875q0 -6.84375 2.265625 -11.953125q2.265625 -5.125 6.890625 -7.6875q4.625 -2.5625 10.0625 -2.5625q6.875 0 11.234375 3.484375q4.375 3.46875 5.609375 9.859375l-6.953125 1.0625q-0.984375 -4.234375 -3.515625 -6.375q-2.515625 -2.15625 -6.09375 -2.15625q-5.390625 0 -8.78125 3.875q-3.375 3.875 -3.375 12.25q0 8.5 3.25 12.359375q3.265625 3.84375 8.515625 3.84375q4.203125 0 7.015625 -2.578125q2.828125 -2.59375 3.578125 -7.953125zm13.195251 15.453125l0 -58.21875l7.140625 0l0 33.203125l16.921875 -17.15625l9.25 0l-16.125 15.640625l17.75 26.53125l-8.8125 0l-13.9375 -21.5625l-5.046875 4.84375l0 16.71875l-7.140625 0z" fill-rule="nonzero"/><path fill="#010000" fill-opacity="0.0" d="m779.42535 317.86002l0 0l0 93.51941l0 0l0 -93.51941z" fill-rule="nonzero"/></g></svg>